<svg
        xmlns="http://www.w3.org/2000/svg"
        class="absolute inset-y-0 inset-x-auto top-1 right-2 w-6 h-6 mr-2 mt-2 text-gray-700 pointer-events-none"
        width="9"
        height="18"
        viewBox="0 0 9 18"
        fill="none"
>
    <path
            d="M4.1725 2.42249L6.6325 4.88249C7.0225 5.27249 7.6525 5.27249 8.0425 4.88249C8.4325 4.49249 8.4325 3.86249 8.0425 3.47249L4.8725 0.292486C4.68567 0.105233 4.43202 0 4.1675 0C3.90298 0 3.64933 0.105233 3.4625 0.292486L0.2925 3.47249C-0.0975 3.86249 -0.0975 4.49249 0.2925 4.88249C0.6825 5.27249 1.3125 5.27249 1.7025 4.88249L4.1725 2.42249Z"
            fill="#DADADA"
    />
    <path
            d="M4.17251 14.7625L1.71251 12.3025C1.52568 12.1152 1.27203 12.01 1.00751 12.01C0.742992 12.01 0.489341 12.1152 0.30251 12.3025C-0.0874902 12.6925 -0.0874902 13.3225 0.30251 13.7125L3.47251 16.8925C3.86251 17.2825 4.49251 17.2825 4.88251 16.8925L8.05251 13.7225C8.44251 13.3325 8.44251 12.7025 8.05251 12.3125C7.86568 12.1252 7.61203 12.02 7.34751 12.02C7.08299 12.02 6.82934 12.1252 6.64251 12.3125L4.17251 14.7625Z"
            fill="#DADADA"
    />
</svg>